Simulation
nRows=44
nColumns=15
endheader
time  TH_x TH_y TH_z SC_y  SC_z  SC_x  AC_y  AC_z  AC_x  GH_y  GH_z  GH_yy  EL_x  PS_y
0.0  0.000000  0.000000  0.000000  -28.842753667398078  -0.23638091279732967  -0.4739947531626753  49.0209627267712  5.776188416842808  -3.8279033422494146  40.86464160460894  8.770099336896047  -10.043267013334368  22.790312177256414  0.000000
0.031  0.000000  0.000000  0.000000  -28.823839472131485  -0.08310798381494285  -0.24306582297037646  48.853534201513995  5.914794684199277  -3.9498662537917633  39.66249683028269  9.050313920981472  -8.956158019709378  22.75442874288814  0.000000
0.062  0.000000  0.000000  0.000000  -28.72508332311296  -0.0067985642514097186  -0.07417656284657544  48.74916170247953  5.91260169816201  -4.102596438980774  38.841260192833744  9.335020117315  -8.218533330854632  22.736295364025505  0.000000
0.093  0.000000  0.000000  0.000000  -28.715772166081308  -0.011478881619369179  0.05066745940905413  48.66464959031202  5.818448201583168  -4.24772987182338  38.44633538487364  9.64315141322098  -7.932039286695669  22.687957310171978  0.000000
0.124  0.000000  0.000000  0.000000  -28.692679290040758  -0.06111282550336578  0.13052653015575447  48.59345197896622  5.700593788399989  -4.395779776345742  38.39503755501651  9.95167626993858  -8.021984817840117  22.600815822707577  0.000000
0.155  0.000000  0.000000  0.000000  -28.697318474608426  -0.13591580960189176  0.18617467000085933  48.542089615116886  5.580141565641095  -4.537289027597331  38.52789254116659  10.286083644253246  -8.333679807945785  22.481195356359734  0.000000
0.186  0.000000  0.000000  0.000000  -28.713552081248608  -0.21942443137652512  0.22375142912478277  48.49178880894013  5.470795052927753  -4.667132860013403  38.752548002956814  10.662653263273471  -8.80983017370427  22.332598769074746  0.000000
0.217  0.000000  0.000000  0.000000  -28.75317973626272  -0.30351113595856466  0.2540505290266722  48.45812515204607  5.376569685502815  -4.787960920483138  38.98383561070147  11.105986129497548  -9.370193628703186  22.159246895597533  0.000000
0.248  0.000000  0.000000  0.000000  -28.809749807767147  -0.3796814182981156  0.2845833026667835  48.424984385115806  5.297697664822594  -4.895721491074648  39.166930269309866  11.622419851966738  -9.975684771598283  21.97415244629163  0.000000
0.279  0.000000  0.000000  0.000000  -28.88213579734257  -0.4438579437821143  0.32118602340335933  48.40442571260106  5.234064928380628  -4.9946603714519755  39.266646818483  12.221100475534206  -10.58709010248678  21.7792651640374  0.000000
0.31  0.000000  0.000000  0.000000  -28.96303032639806  -0.4940304021082648  0.3685831107564955  48.388491614187146  5.186085629044416  -5.081825283760527  39.2551432482787  12.89829165204582  -11.176051773431558  21.58798300634157  0.000000
0.34099999999999997  0.000000  0.000000  0.000000  -29.048498810140483  -0.5306271011734246  0.43003634835816473  48.38796021295544  5.152123762120664  -5.15869409074205  39.115428995374074  13.654659363774176  -11.721375758472307  21.407343614972305  0.000000
0.372  0.000000  0.000000  0.000000  -29.135887679606046  -0.5566638279611452  0.5082933326464194  48.40500599281323  5.131100884575255  -5.222722370956752  38.81993064118268  14.48552196793849  -12.195538251855398  21.259687670222785  0.000000
0.403  0.000000  0.000000  0.000000  -29.226264882756126  -0.5762367817543192  0.6040781080455679  48.4492754513656  5.119729004237958  -5.272672918468265  38.345039781328985  15.389881426168978  -12.577166838081276  21.16298763327333  0.000000
0.434  0.000000  0.000000  0.000000  -29.31911401169865  -0.5931554956312199  0.7166435004097921  48.52512588761745  5.117429871505783  -5.306899349414999  37.678981579089964  16.365181367735595  -12.850958428642187  21.136750547851104  0.000000
0.46499999999999997  0.000000  0.000000  0.000000  -29.41021483132344  -0.6076613851165216  0.8451318473161819  48.63420099526493  5.12307007481868  -5.323420481053287  36.833860764859686  17.408271057755247  -13.013102011333903  21.181158977533755  0.000000
0.496  0.000000  0.000000  0.000000  -29.490492595722113  -0.6164443341738686  0.9884106725497827  48.7732823436329  5.137864637119889  -5.322347147340736  35.855205753352855  18.515584807778218  -13.08056581622275  21.27838427966775  0.000000
0.527  0.000000  0.000000  0.000000  -29.55086292635093  -0.6130746693408254  1.146743174619407  48.93382187678846  5.162345182649375  -5.303446984240381  34.79950952533335  19.68171517896203  -13.07303864860613  21.397340649063512  0.000000
0.558  0.000000  0.000000  0.000000  -29.586225981261734  -0.590196584119545  1.3210409794766267  49.10632569554422  5.198850516148295  -5.269729755535685  33.731539849512224  20.901607580019487  -13.022638343293346  21.510010441221553  0.000000
0.589  0.000000  0.000000  0.000000  -29.601546401251575  -0.5409258449056873  1.514378793432178  49.28068355603442  5.248360202958219  -5.2239795281014905  32.706960780068144  22.16916048210291  -12.963654672697746  21.598185270379513  0.000000
0.62  0.000000  0.000000  0.000000  -29.60652617779556  -0.4607858322117809  1.730258944321177  49.45000857476362  5.311433422392223  -5.171205228180042  31.773635563752894  23.479764553852668  -12.93667718268667  21.653699673612085  0.000000
0.651  0.000000  0.000000  0.000000  -29.612596705716236  -0.3485413292794068  1.9733877571015819  49.61066767541158  5.386489251600392  -5.114734679485343  30.952654944480958  24.828336966298544  -12.962271588555154  21.67539708882789  0.000000
0.6819999999999999  0.000000  0.000000  0.000000  -29.62275262089984  -0.20635336566422985  2.2469792742303745  49.763766241405335  5.470831595757932  -5.057958290131424  30.239411047918587  26.21137297156202  -13.042473686498724  21.666377972011873  0.000000
0.713  0.000000  0.000000  0.000000  -29.635574188572228  -0.04056668031022615  2.5533178529632488  49.91380151186418  5.56032359025673  -5.002547283615279  29.60270318277699  27.626509426796154  -13.155832321525827  21.63326805265267  0.000000
0.744  0.000000  0.000000  0.000000  -29.644367406643806  0.14071957262636467  2.8949156728536787  50.066981459641944  5.650406902482463  -4.951746033478321  29.00871283935283  29.07112338542102  -13.278923414583513  21.583848561072998  0.000000
0.775  0.000000  0.000000  0.000000  -29.645030639530816  0.33126160410717614  3.2737464385297304  50.22824985585124  5.7382686505956  -4.907127541797202  28.43681369614175  30.539012882124094  -13.397674307835077  21.523309742583628  0.000000
0.806  0.000000  0.000000  0.000000  -29.635215586398825  0.5277507279233645  3.689968425663167  50.39967201270105  5.8258646138611025  -4.86985345741451  27.88870041846702  32.01918736502919  -13.516721813820787  21.451841572452857  0.000000
0.837  0.000000  0.000000  0.000000  -29.618064859610282  0.7297376988294773  4.145180254953784  50.58072609014459  5.915937945414681  -4.840131854291623  27.376905415965613  33.49649983214116  -13.64777917144912  21.36497326538803  0.000000
0.868  0.000000  0.000000  0.000000  -29.59651794441414  0.9382237928069556  4.640697114993186  50.76938875948214  6.010361510586931  -4.8188265119352875  26.916179291823216  34.95546737612922  -13.8049121262446  21.25681595247854  0.000000
0.899  0.000000  0.000000  0.000000  -29.574858847203096  1.1538618471471072  5.177235018204852  50.9625601767257  6.108616286233007  -4.806062422159572  26.51231002546781  36.383212355217665  -13.994345080118405  21.1235748001754  0.000000
0.9299999999999999  0.000000  0.000000  0.000000  -29.554391127110673  1.3769211834474033  5.7531295341205295  51.156383453124775  6.208901742805444  -4.802591451708257  26.164159149517126  37.77127729007048  -14.218474226600614  20.964026816543463  0.000000
0.961  0.000000  0.000000  0.000000  -29.538245643094935  1.6078651180670867  6.366052025759653  51.34563505568245  6.309014914283772  -4.8086744950307505  25.8673703483082  39.114678527634396  -14.477216582164933  20.778586151619955  0.000000
0.992  0.000000  0.000000  0.000000  -29.530240479921055  1.8481847301275691  7.013050253096129  51.52329542692881  6.408390839624198  -4.8254510290545385  25.62411428986284  40.41064328103017  -14.777328151010114  20.5676897834316  0.000000
1.023  0.000000  0.000000  0.000000  -29.53862499185174  2.1010659310212128  7.6927517291488385  51.68099461451387  6.507844439742771  -4.853468267350526  25.44313167676551  41.65744036964665  -15.129879095231564  20.331666663625178  0.000000
1.054  0.000000  0.000000  0.000000  -29.570163403392314  2.370294408126528  8.404758426149444  51.81147026790142  6.609758284696005  -4.892790775271454  25.33403699556573  42.85423184115953  -15.545575917221045  20.071266754908166  0.000000
1.085  0.000000  0.000000  0.000000  -29.630437644243035  2.6589251941127263  9.150931055680077  51.91246971026665  6.71618334943172  -4.940453663215092  25.293225747413015  44.0010405118845  -16.019477956773954  19.791039026703228  0.000000
1.116  0.000000  0.000000  0.000000  -29.71815410094255  2.967427819199537  9.932765825960828  51.98866926298926  6.829097084862364  -4.990595796560199  25.296478444922148  45.09851733951015  -16.525164729007123  19.502263911886356  0.000000
1.147  0.000000  0.000000  0.000000  -29.82929454126667  3.2933503228555456  10.751219817320482  52.04986620523267  6.949955873353585  -5.034575389300933  25.302784197438484  46.14793467929941  -17.018598270019673  19.222228109541607  0.000000
1.178  0.000000  0.000000  0.000000  -29.958637281368482  3.6328582616965703  11.604376686158831  52.106077074485945  7.0801281486275  -5.063927705296887  25.272622865602358  47.15077070900964  -17.457075119009662  18.96887771112695  0.000000
1.209  0.000000  0.000000  0.000000  -30.106632728900063  3.982433603179956  12.48835350543292  52.162015121199836  7.220272842111467  -5.07238833293263  25.18475939339595  48.10946037513712  -17.815002944269  18.754101276276067  0.000000
1.24  0.000000  0.000000  0.000000  -30.277392552666917  4.339991845648632  13.396362123802305  52.21450489776964  7.3702910632057534  -5.057444514255268  25.043775133993062  49.02671088058297  -18.091655461450753  18.580304637096294  0.000000
1.271  0.000000  0.000000  0.000000  -30.47925872055478  4.704476656028361  14.320501977253178  52.25585611225286  7.529075007932598  -5.019350324309788  24.87025522988762  49.90559439477524  -18.301959318302984  18.442894857806305  0.000000
1.302  0.000000  0.000000  0.000000  -30.71570740244825  5.074744313829833  15.251360606509246  52.277554700497284  7.694563201136541  -4.959448501850828  24.685257306109605  50.74769032503  -18.46381688209643  18.3349967997553  0.000000
1.333  0.000000  0.000000  0.000000  -30.983274450990347  5.4476095877205095  16.179708495281545  52.275024065619164  7.864418947160751  -4.879602509601578  24.497449469673167  51.55417335186141  -18.588889817424402  18.24978845870212  0.000000
